<?xml version="1.0" encoding="UTF-8" standalone="no"?>
<svg
   version="1.1"
   width="8192"
   height="8192"
   id="svg60"
   xml:space="preserve"
   xmlns="http://www.w3.org/2000/svg"
   xmlns:svg="http://www.w3.org/2000/svg"><defs
     id="defs60" />
      <style>
       path {
         display: inline;
         fill: gray;
         fill-opacity: 1;
         stroke: none
       }
       @media (prefers-color-scheme: light) {
         #rays_bottom, #rays_bottom_right, #rays_right, #rays_top, #rays_left {
           fill: #555555;
         }

         #center, #circle {
           fill: black;
         }
       }
       @media (prefers-color-scheme: dark) {
         #rays_bottom, #rays_bottom_right, #rays_right, #rays_top, #rays_left {
           fill: #aaaaaa;
         }

         #center, #circle {
           fill: white;
         }
       }
     </style>
     <g id="icon"><g
       id="rays_layer"><path
         id="rays_bottom"
         d="m 4096.0234,4092.3496 c -14.6201,23.366 -21.5474,-22.4276 -22.1406,58.0586 -139.8038,855.395 -213.8948,1719.7985 -308.6854,2580.9341 -86.6416,837.3026 -170.0914,1674.932 -256.8536,2512.2222 225.4641,24.2435 451.7872,31.5266 678.4238,32.6191 -10.1072,-1190.2404 -7.3454,-2380.5891 -25.586,-3570.7559 78.1234,1187.6933 176.3771,2374.0436 262.7754,3561.1817 121.5143,-12.0404 243.0287,-24.0807 364.543,-36.1211 -203.202,-1600.8903 -375.784,-3206.0691 -617.5948,-4801.7755 -23.7831,-110.5297 -33.1547,-237.8806 -74.8818,-336.3632 z" /><path
         id="rays_bottom_right"
         d="m 4108.0098,4097.6523 c -91.6626,52.9799 1227.4362,1526.6835 397.8084,594.2047 901.7324,1188.3911 1829.533,2357.6915 2752.5224,3529.0714 638.5538,572.3617 1277.1076,1144.7235 1915.6614,1717.0853 -975.8594,-1172.1568 -1963.3881,-2334.5098 -2959.9478,-3489.024 -51.9274,-62.2466 -200.2481,-239.9361 -71.4792,-85.7765 527.7695,630.888 1111.2626,1212.8482 1667.9203,1817.9972 509.4668,536.4931 1023.0981,1069.014 1533.1375,1604.9673 98.8223,-96.1647 197.6445,-192.3294 296.4668,-288.4941 C 8051.0319,7882.2 6439.0145,6289.2829 4803.3709,4720.9912 4691.3951,4617.9494 4596.3921,4527.146 4771.9596,4671.6757 6569.5236,6081.9226 8392.6192,7459.4093 10232.102,8814.4785 9618.4423,8207.4251 9004.7827,7600.3718 8391.123,6993.3184 6997.7853,6041.6848 5630.7947,5049.8518 4205.9618,4145.4872 l -48.3889,-25.2121 z" /><path
         id="rays_right"
         d="M 10184.275,-683.9707 C 8400.95,655.31751 6637.4674,2020.9465 4892.7122,3410.0485 c -263.7549,223.9666 -548.2944,427.509 -790.9251,674.1468 -5.7208,13.8137 245.8561,-48.5995 233.1026,-39.1662 -114.2624,33.2104 -305.034,78.2287 -61.3936,63.5139 -301.4478,6.6804 413.2814,54.3805 328.4349,44.701 154.5612,11.2562 494.39,28.1429 180.1897,13.3059 -195.7616,-8.9495 -391.5232,-17.8991 -587.2848,-26.8487 1549.0358,428.6496 3124.278,754.2269 4687.4398,1126.3374 208.5594,111.2157 290.0358,27.9409 291.4541,-177.954 19.3068,-102.7547 77.2275,-411.0191 57.9206,-308.2643 -1414.5095,-201.7153 -2826.7436,-419.856 -4243.8027,-603.3476 1427.1483,70.5589 2855.5733,109.9492 4283.4199,163.1972 1.4193,-122.1009 2.8385,-244.2018 4.2578,-366.3027 -988.0119,12.8094 -1976.1464,21.5467 -2964.082,36.8926 986.2047,-61.5285 1971.8512,-131.6087 2957.9921,-194.125 -10.9101,-121.6205 -21.8203,-243.2409 -32.7304,-364.8614 -1596.726,187.7236 -3217.7651,346.8328 -4797.2891,571.5274 1548.5811,-442.773 3076.1811,-954.45 4613.3965,-1434.3711 -55.3893,-155.1035 -110.7787,-310.2071 -166.168,-465.3106 C 7415.0369,2715.1003 5902.3678,3293.6627 4462.0625,3911.2383 5835.1891,3107.6863 7173.993,2247.6397 8528.5801,1413.6504 9080.4784,714.44337 9632.3767,15.236333 10184.275,-683.9707 Z" /><path
         id="rays_top"
         d="m -980.96289,-1746.9629 c -101.62501,93.1986 -203.25001,186.3971 -304.87501,279.5957 1557.13821,1678.30167 3135.9107,3336.7224 4743.0978,4967.1509 153.9922,142.3544 582.3026,598.398 573.8089,532.3047 -121.9575,-187.8475 151.6085,267.1283 87.8746,-68.9849 6.2382,251.3972 232.1006,-449.7308 116.899,-125.1815 -168.5295,361.3434 242.174,-344.7913 153.4251,-196.5476 C 5158.8917,2299.2214 5881.5291,930.85579 6625.293,-425.66406 6516.6784,-481.46419 6190.8346,-648.86458 6299.4492,-593.06445 5791.2994,462.19288 5273.3917,1512.8554 4771.8848,2571.2461 5216.3027,1487.5663 5648.4242,398.89219 6087.6777,-686.88477 5973.36,-729.80404 5630.4069,-858.56185 5744.7246,-815.64258 5200.5027,775.80592 4610.5144,2352.5516 4119.1465,3961.4648 c 14.7618,-281.179 161.2372,-535.2415 239.0664,-803.4632 200.0436,-542.2999 377.4117,-1091.8041 519.5712,-1652.3612 221.3191,-794.95625 440.1797,-1590.594579 661.6261,-2385.5154 -118.4056,-29.8444 -473.6224,-119.3776 -355.2168,-89.5332 -353.7727,1590.74806 -741.7742,3174.3459 -1054.5567,4773.9121 52.6797,-1629.0586 31.9016,-3259.29681 44.125,-4888.9219 -122.0859,2.4935 -488.3437,9.974 -366.2578,7.4805 85.3088,1683.77179 118.6158,3371.2962 262.9266,5051.3535 47.7737,237.745 -390.3617,-843.9186 -269.7654,-481.7115 C 3075.9727,2175.3276 2314.237,878.82083 1568.832,-426.85156 1464.4108,-363.55208 1151.1472,-173.65364 1255.5684,-236.95312 2093.6642,1066.0247 2912.1727,2381.8325 3775.1191,3668.6602 2225.1703,1832.8764 630.70527,34.830444 -980.96289,-1746.9629 Z m 4145.99409,746.291 c -119.2689,26.18165 -477.0755,104.7266 -357.8066,78.54495 C 3210.7062,692.76609 3574.4573,2318.2526 4025.8965,3920.7207 4063.0164,3454.0132 3921.6032,3001.4051 3851.371,2543.8259 3631.3602,1360.6429 3391.6004,181.25462 3165.0312,-1000.6719 Z" /><path
         id="rays_left"
         d="m -1031.6309,3354.2715 c -13.1907,121.3939 -26.3815,242.7877 -39.5722,364.1816 1510.78019,123.473 3019.8921,269.5157 4532.7187,366.5606 -1515.3234,44.3252 -3028.5217,138.8957 -4542.707,209.6347 9.0006,121.7767 18.0013,243.5534 27.0019,365.3301 859.62495,-83.9361 1719.25004,-167.8706 2578.875,-251.8066 -854.80728,123.7768 -1709.18083,250.5396 -2564.207,372.8047 20.4206,120.39 40.84115,240.7799 61.26173,361.1699 C 398.15871,4871.284 1778.0191,4617.5602 3150.9473,4329.209 1833.8664,4674.5586 533.93961,5084.6191 -775.28613,5459.1602 c -209.23678,-4.6712 -18.21511,413.8427 -30.53273,301.4858 69.37618,275.1375 524.98496,-5.869 462.39347,-1.8092 843.83597,-304.4382 1689.03569,-605.1059 2531.61489,-913.0204 -967.8628,390.4098 -1923.29354,812.0841 -2886.52739,1214.1348 50.26042,111.2858 100.52083,222.5716 150.78125,333.8574 C 949.46328,5663.2107 2468.1314,4975.0349 3942.1341,4198.311 c 32.7126,-24.278 -317.5861,109.6163 -248.7193,87.0664 -109.4783,40.5567 -335.5454,125.9149 -84.1399,29.0787 83.345,-38.3652 557.3634,-209.7678 295.1083,-145.8189 -122.8107,26.1743 -245.6213,52.3487 -368.432,78.523 170.3183,-47.3341 653.0639,-229.686 543.0957,-154.4454 -48.3712,-33.4498 -408.1893,-94.0848 -588.8493,-119.2194 -1503.4451,-233.3831 -3014.47869,-413.564 -4521.8285,-619.2239 z m 5075.7286,768.543 C 2951.3197,5068.9631 1929.3753,6092.9834 877.45154,7083.6748 68.332143,7853.1821 -721.95089,8642.0666 -1519.5273,9423.4395 -704.54229,9013.4798 110.44272,8603.5202 925.42773,8193.5605 1959.8738,6872.8805 3031.023,5579.9721 4022.8885,4226.5806 c 9.8618,-39.928 98.1785,-82.2196 21.2092,-103.7661 z" /></g><g
       id="center_layer"><path
         id="center"
         transform="translate(-25.842382,-49.951582)"
         d="m 2613.871,3941.199 2.369,7.461 3.451,6.193 4.16,5.313 4.498,4.819 4.463,4.715 4.057,4.998 3.277,5.669 2.125,6.726 0.602,8.173 -1.294,10.006 -0.741,8.956 -0.401,6.877 -0.154,5.245 v 4.061 l 0.064,3.325 0.035,3.035 -0.089,3.192 -0.303,3.799 -0.611,4.851 -1.011,6.351 -1.503,8.3 -1.917,9.814 -0.172,0.88 -0.321,9.988 0.204,7.818 0.608,6.092 0.888,4.81 1.047,3.973 1.083,3.58 0.996,3.631 0.786,4.126 0.455,5.066 v 6.449 l -0.576,8.278 -1.201,9.927 -0.076,0.622 0.337,9.65 0.965,7.696 1.455,6.145 1.803,4.999 2.013,4.255 2.082,3.916 2.011,3.979 1.801,4.445 1.449,5.316 0.959,6.589 0.327,8.266 -0.428,9.991 -0.015,0.355 1.753,8.978 3.849,8.035 5.532,7.24 6.8,6.592 7.654,6.091 8.094,5.74 8.12,5.534 7.733,5.477 6.931,5.566 5.716,5.805 4.086,6.189 2.043,6.721 2.877,3.174 6.652,-0.532 9.466,-3.225 0.349,-0.119 9.202,-3.915 3.164,-1.346 9.155,-4.023 5.15,-2.263 9.251,-3.796 6.383,-2.62 9.451,-3.267 6.899,-2.385 9.718,-2.359 6.738,-1.636 9.959,-0.902 5.99,-0.542 9.91,1.337 4.922,0.664 9.002,4.356 4.1,1.984 6.81,7.323 3.952,4.249 2.78,9.606 1.502,5.191 1.816,9.834 0.319,1.728 0.414,8.889 -0.881,6.783 -1.75,5.24 -2.194,4.262 -2.21,3.848 -1.8,3.999 -0.966,4.713 0.296,5.994 1.984,7.837 3.713,9.285 0.384,0.961 -0.04,10.003 -4.944,8.693 -0.542,0.954 -7.265,6.871 -2.618,2.476 -8.237,5.669 -4.993,3.436 -8.671,4.981 -6.856,3.939 -8.858,4.642 -7.919,4.15 -8.895,4.569 -8.08,4.151 -8.8,4.751 -7.325,3.955 -8.519,5.238 -5.707,3.51 -7.868,6.172 -3.41,2.675 -6.286,7.776 -0.992,1.227 -2.232,9.217 3.067,7.832 4.907,6.503 6.381,5.39 7.49,4.494 8.234,3.812 8.612,3.349 8.623,3.1 8.27,3.068 7.551,3.253 6.467,3.653 5.016,4.27 3.2,5.103 2.673,4.803 3.541,2.863 4.299,1.36 4.95,0.293 5.493,-0.339 5.926,-0.533 6.251,-0.291 6.468,0.387 6.577,1.502 6.576,3.052 6.468,5.039 6.252,7.462 3.859,8.121 2.856,6.316 2.084,4.865 1.541,3.769 1.229,3.027 1.145,2.641 1.292,2.609 1.668,2.93 2.275,3.608 3.111,4.639 4.178,6.024 5.473,7.765 1.141,8.193 -4.552,7.991 -7.563,6.543 -1.591,1.376 -8.462,5.329 -4.199,2.644 -8.795,4.758 -6.281,3.397 -8.885,4.588 -7.513,3.879 -8.815,4.721 -7.812,4.183 -8.571,5.15 -7.192,4.321 -8.052,5.928 -5.754,4.236 -6.996,7.146 -3.76,3.841 -4.847,8.747 -1.767,3.189 -1.053,9.944 -0.324,3.07 5.524,8.335 1.132,1.707 8.842,4.67 0.935,0.494 9.955,0.95 2.38,0.228 9.912,-1.328 4.418,-0.592 9.674,-2.532 6.086,-1.593 9.505,-3.11 7.125,-2.332 9.449,-3.273 7.485,-2.593 9.513,-3.082 7.163,-2.32 9.689,-2.472 6.166,-1.573 9.923,-1.234 4.547,-0.566 9.944,1.062 2.58,0.275 8.814,4.723 1.199,0.641 3.934,9.303 -0.849,9.541 -4.372,8.994 -0.363,0.748 -6.15,7.885 -1.575,2.019 -6.995,7.147 -2.822,2.883 -7.364,6.766 -3.648,3.352 -7.437,6.685 -3.873,3.481 -7.249,6.889 -3.462,3.29 -6.721,7.405 -2.493,2.748 -5.602,8.284 -1.22,1.805 -3.333,9.428 -0.198,0.56 0.656,9.848 3.371,9.014 0.207,7.287 -2.321,5.988 -4.214,5.119 -5.472,4.68 -6.097,4.667 -6.086,5.085 -5.441,5.931 -4.16,7.207 -2.246,8.911 0.275,9.996 0.029,1.047 2.484,9.687 1.004,3.919 6.572,7.537 2.207,2.532 8.693,4.944 2.728,1.551 9.675,2.527 3.805,0.993 9.971,0.762 4.985,0.38 9.992,-0.401 5.858,-0.236 9.937,-1.118 6.224,-0.701 9.888,-1.495 6.002,-0.908 9.876,-1.569 5.16,-0.82 9.916,-1.296 3.684,-0.482 9.988,-0.489 1.592,-0.079 8.978,1.24 5.795,3.644 3.542,1.833 4.784,-1.435 5.91,-3.997 6.918,-5.857 7.441,-6.681 0.369,-0.331 7.546,-6.56 1.037,-0.902 7.885,-6.15 1.356,-1.058 8.426,-5.386 1.356,-0.866 9.119,-4.102 1.085,-0.488 9.783,-2.071 0.727,-0.154 9.969,0.787 0.73,0.058 9.191,3.941 1.58,0.677 6.627,7.49 0.668,0.755 4.968,8.125 3.07,7.981 1.598,7.817 0.554,7.631 -0.064,7.421 -0.255,7.192 -0.017,6.939 0.646,6.664 1.738,6.368 3.256,6.049 5.202,5.709 2.666,5.332 -0.521,6.648 -3.053,7.765 -4.933,8.686 -5.475,8.367 -0.681,1.04 -5.607,8.28 -1.119,1.65 -5.435,8.394 -1.206,1.862 -4.943,8.694 -0.961,1.689 -4.007,9.162 -0.503,1.151 -2.382,9.712 -0.081,0.331 0.239,9.576 3.594,8.91 6.272,6.269 5.993,4.957 5.755,3.889 5.56,3.065 5.409,2.486 5.299,2.152 5.232,2.061 5.208,2.215 5.228,2.614 5.288,3.257 5.393,4.144 5.539,5.276 5.071,3.9 5.372,3.072 5.605,2.397 5.768,1.873 5.864,1.503 5.89,1.284 5.848,1.218 5.737,1.305 5.557,1.544 5.31,1.936 4.994,2.479 4.608,3.176 2.696,4.195 -0.845,4.928 -3.606,5.655 -5.589,6.374 -6.796,7.083 -6.802,7.331 -0.421,0.454 -6.298,7.768 -0.575,0.711 -5.312,8.473 -0.433,0.691 -3.634,9.317 -0.205,0.525 -1.091,9.94 -0.063,0.571 2.023,9.793 0.285,1.379 4.845,8.748 1.704,3.076 8.03,5.96 2.374,1.762 8.991,4.378 0.846,0.413 9.331,2.4 8.887,0.547 8.503,-0.768 8.181,-1.544 7.921,-1.782 7.722,-1.482 7.584,-0.644 7.508,0.734 7.494,2.648 7.54,5.102 6.889,3.368 7.601,1.477 8.143,-0.063 8.513,-1.251 8.713,-2.088 8.742,-2.573 8.6,-2.707 8.287,-2.489 7.804,-1.919 7.149,-0.999 6.324,0.274 5.328,1.897 3.318,3.446 0.62,4.518 -1.462,5.481 -2.924,6.334 -3.769,7.077 -3.995,7.709 -3.602,8.232 -2.591,8.644 -0.963,8.947 1.284,9.139 4.104,9.119 0.046,0.103 6.389,7.693 1.245,1.501 9.494,3.143 0.936,0.31 9.831,-1.831 0.829,-0.154 8.606,-5.092 2.238,-1.324 7.449,-6.671 3.535,-3.167 6.707,-7.417 4.371,-4.834 6.316,-7.753 4.81,-5.904 6.207,-7.84 4.921,-6.215 6.362,-7.715 4.723,-5.728 6.81,-7.323 4.187,-4.502 7.632,-6.462 3.23,-2.736 8.87,-4.618 1.813,-0.944 9.962,-0.874 0.495,-0.044 8.079,4.669 5.99,6.766 4.274,8.441 2.891,9.573 0.037,0.121 1.825,9.832 0.128,0.691 1.226,9.925 0.124,1.006 1.019,9.948 0.099,0.968 1.192,9.928 0.065,0.549 1.768,9.616 2.649,8.334 3.902,6.627 5.525,4.498 5.744,1.129 5.666,-1.211 5.653,-3.097 5.706,-4.53 5.826,-5.507 6.011,-6.03 6.262,-6.099 6.578,-5.714 6.961,-4.874 7.409,-3.58 7.923,-1.831 8.502,0.371 5.826,3.874 3.065,6.601 0.896,8.846 -0.64,9.98 -0.041,0.628 -1.388,9.903 -0.279,1.985 -1.603,9.871 -0.458,2.816 -1.418,9.898 -0.445,3.104 -0.835,9.965 -0.24,2.871 0.251,9.997 0.055,2.191 2.018,9.794 0.26,1.263 4.561,8.899 0.28,0.546 7.363,6.767 0.634,0.583 9.596,1.534 9.061,-2.496 8.303,-5.573 0.298,-0.2 7.037,-7.105 1.182,-1.193 6.18,-7.862 1.735,-2.207 5.697,-8.218 1.99,-2.87 5.53,-8.331 2.006,-3.022 5.662,-8.242 1.802,-2.623 6.129,-7.901 1.338,-1.724 7.033,-7.109 0.516,-0.522 7.708,-4.885 7.943,-1.385 7.61,0.058 5.04,-2.643 3.083,-4.853 1.738,-6.575 1.007,-7.805 0.887,-8.546 1.382,-8.798 2.489,-8.56 4.209,-7.832 6.541,-6.615 8.882,-4.594 0.606,-0.313 9.79,-2.034 3.256,-0.676 9.126,4.086 2.369,1.061 4.463,8.949 1.334,2.674 0.72,9.974 0.504,6.969 -1.046,9.945 -1.047,9.946 -0.128,1.219 -1.849,9.827 -1.849,9.828 -0.841,4.465 -2.154,9.765 -2.154,9.766 -1.422,6.445 -2.122,9.773 -2.122,9.772 -1.549,7.133 -1.775,9.841 -1.776,9.841 -1.18,6.542 -1.026,9.947 -1.027,9.947 -0.487,4.721 0.355,9.993 0.355,9.994 0.067,1.864 2.795,9.601 2.426,8.332 6.428,7.66 4.364,5.2 9.969,0.791 5.695,0.451 8.479,-5.301 2.777,-1.736 4.863,-8.738 2.859,-5.139 2.539,-9.672 2.521,-9.603 1.395,-9.902 1.395,-9.902 0.482,-3.428 0.912,-9.959 0.911,-9.958 0.534,-5.833 0.86,-9.963 0.859,-9.963 0.596,-6.9 1.18,-9.93 1.18,-9.93 0.785,-6.601 1.929,-9.812 1.93,-9.812 0.99,-5.031 3.277,-9.448 3.277,-9.448 0.871,-2.513 5.453,-8.383 5.423,-8.339 8.204,-5.718 6.995,-4.876 9.886,1.501 7.4,1.124 7.857,6.185 4.301,3.387 4.618,8.87 3.329,6.395 2.298,9.732 2.298,9.733 0.056,0.239 0.99,9.952 0.989,9.95 0.297,2.988 0.328,9.994 0.328,9.995 0.159,4.83 0.107,10 0.107,9.999 0.058,5.497 0.26,9.997 0.259,9.996 0.128,4.925 0.836,9.965 0.837,9.965 0.265,3.156 2.03,9.791 2.03,9.792 0.086,0.416 4.212,9.069 3.059,6.589 7.472,6.646 3.842,3.417 9.979,0.649 4.289,0.28 9.852,-1.714 3.13,-0.544 9.249,-3.802 2.552,-1.05 8.427,-5.384 2.301,-1.47 7.632,-6.462 2.129,-1.802 6.999,-7.142 1.901,-1.94 6.585,-7.525 1.561,-1.783 6.426,-7.663 1.073,-1.279 6.57,-7.539 0.387,-0.445 6.524,-6.433 6.195,-4.291 5.974,-1.556 4.993,1.014 3.693,2.825 2.747,4.306 2.151,5.458 1.907,6.283 2.017,6.777 2.477,6.945 3.29,6.783 4.455,6.292 5.971,5.474 7.841,4.325 9.621,2.726 0.44,0.124 8.792,-2.626 5.351,-7.619 2.194,-9.756 0.443,-1.969 0.431,-9.991 0.214,-4.954 -0.359,-9.993 -0.262,-7.283 -0.621,-9.981 -0.543,-8.74 -0.508,-9.987 -0.473,-9.293 -0.04,-9.999 -0.035,-8.951 0.873,-9.961 0.682,-7.773 2.427,-9.701 1.484,-5.93 4.839,-8.75 2.151,-3.89 7.764,-6.303 3.031,-2.461 9.99,0.444 2.757,0.122 7.808,6.247 1.524,1.219 4.507,8.927 2.116,4.192 2.549,9.67 2.069,7.854 1.584,9.873 1.585,9.874 0.15,0.934 1.197,9.928 1.197,9.928 0.33,2.735 1.21,9.926 1.21,9.927 0.414,3.4 1.59,9.873 1.59,9.873 0.471,2.923 2.409,9.705 2.408,9.706 0.354,1.425 3.845,9.231 3.551,8.524 6.097,7.927 4.23,5.501 8.717,4.902 5.247,2.95 9.779,-2.089 4.915,-1.051 7.747,-6.323 2.694,-2.199 4.718,-8.817 2.195,-4.101 2.443,-9.696 1.671,-6.628 1.083,-9.942 0.959,-8.803 0.346,-9.994 0.353,-10.183 0.039,-10 0.039,-10 v -0.622 l 0.095,-10 0.097,-10.079 0.554,-9.985 0.475,-8.563 1.598,-9.872 0.998,-6.159 3.635,-9.315 1.253,-3.21 7.016,-7.125 0.892,-0.906 9.29,-3.701 0.736,-0.293 6.63,-4.188 3.923,-4.392 1.904,-4.605 0.574,-4.828 -0.067,-5.06 -0.021,-5.3 0.716,-5.551 2.14,-5.811 4.254,-6.079 7.054,-6.357 8.461,-5.331 2.084,-1.313 9.79,-2.043 1.702,-0.355 9.992,0.386 0.276,0.011 9.224,2.642 8.361,4.34 7.677,5.487 7.172,6.085 6.847,6.135 6.703,5.635 6.738,4.587 6.953,2.989 7.346,0.842 7.922,-1.854 6.299,0.496 5.614,5.135 5.035,8.641 0.139,0.239 3.907,9.206 1.071,2.523 3.448,9.386 1.579,4.295 3.395,9.406 1.925,5.332 3.66,9.306 2.199,5.593 4.245,9.054 2.396,5.111 5.22,8.529 2.45,4.005 6.663,7.457 2.279,2.55 8.462,5.329 1.997,1.257 9.832,1.825 2.388,0.443 9.42,-3.357 1.586,-0.565 8.545,-5.195 0.551,-0.335 7.395,-6.731 0.083,-0.076 6.155,-7.753 5.122,-8.368 4.383,-8.654 3.936,-8.607 3.782,-8.23 3.921,-7.523 4.351,-6.485 5.076,-5.116 6.091,-3.416 2.761,-3.567 -1.367,-6.252 -4.567,-8.559 -5.463,-8.376 -1.378,-2.113 -5.622,-8.269 -2.564,-3.771 -5.457,-8.38 -3.148,-4.835 -5.003,-8.659 -3.093,-5.353 -4.19,-9.079 -2.469,-5.35 -2.845,-9.587 -1.449,-4.885 -0.708,-9.975 -0.296,-4.159 2.331,-9.725 0.886,-3.695 5.614,-8.276 2.749,-4.052 9.469,-3.212 3.841,-1.303 9.892,1.468 3.394,0.504 8.764,4.815 4.455,2.448 7.557,6.55 5.551,4.812 6.723,7.403 6.231,6.861 6.24,7.814 6.24,7.814 0.276,0.344 6.046,7.965 6.047,7.965 0.422,0.555 6.12,7.908 6.11,7.896 6.497,7.602 5.406,6.325 7.281,6.855 4.251,4.001 8.602,5.1 2.514,1.491 9.945,1.054 0.714,0.075 8.211,-5.045 5.996,-6.967 4.16,-8.503 2.707,-9.654 1.549,-9.879 0.085,-0.54 0.87,-9.962 0.073,-0.838 0.584,-9.982 0.048,-0.812 0.673,-9.977 0.029,-0.427 1.155,-9.628 1.987,-8.467 3.201,-6.92 4.796,-4.989 5.381,-1.967 5.759,0.011 6.101,1.584 6.407,2.754 6.678,3.52 6.913,3.882 7.112,3.84 7.276,3.395 7.403,2.545 7.495,1.293 7.552,-0.363 7.572,-2.424 4.722,-4.592 2.407,-6.144 0.554,-7.425 -0.834,-8.432 -1.764,-9.166 -2.23,-9.628 -2.234,-9.817 -1.776,-9.733 -0.857,-9.376 0.525,-8.747 2.369,-7.843 4.674,-6.669 5.754,-4.604 4.718,-3.899 3.884,-3.354 3.252,-2.972 2.821,-2.75 2.591,-2.69 2.564,-2.792 2.738,-3.054 3.113,-3.479 3.691,-4.064 4.469,-4.81 5.45,-5.719 5.234,-4.578 3.945,-3.78 2.923,-3.19 2.168,-2.81 1.679,-2.637 1.456,-2.674 1.5,-2.919 1.81,-3.372 2.386,-4.035 3.23,-4.905 4.339,-5.984 5.715,-7.273 6.666,-4.676 7.618,-2.836 8.341,-1.329 8.834,-0.156 9.097,0.684 9.133,1.192 8.939,1.367 8.515,1.209 7.864,0.718 6.981,-0.107 5.871,-1.263 4.531,-2.754 2.179,-3.881 -0.87,-4.199 -3.27,-4.586 -5.026,-5.043 -6.137,-5.568 -6.601,-6.165 -6.419,-6.83 -5.591,-7.565 -4.118,-8.37 -1.999,-9.245 0.75,-9.972 0.017,-0.217 3.494,-9.369 0.683,-1.833 7.157,-6.985 0.858,-0.837 8.605,-5.094 0.217,-0.128 9.413,-3.075 9.787,-1.381 9.946,-0.141 9.887,0.646 9.613,0.98 9.12,0.861 8.413,0.288 7.488,-0.737 6.347,-2.217 4.989,-4.149 3.052,-4.209 1.647,-3.807 0.537,-3.556 -0.278,-3.455 -0.803,-3.506 -1.031,-3.708 -0.969,-4.06 -0.61,-4.564 0.04,-5.219 0.985,-6.024 2.222,-6.981 3.754,-8.09 4.853,-6.422 4.238,-4.987 3.732,-3.857 3.334,-3.031 3.044,-2.512 2.863,-2.297 2.79,-2.388 2.827,-2.785 2.97,-3.486 3.223,-4.493 3.585,-5.806 4.054,-7.424 4.423,-5.929 4.332,-4.675 4.252,-3.687 4.178,-2.968 4.114,-2.519 4.059,-2.336 4.014,-2.423 3.975,-2.777 3.947,-3.4 3.927,-4.292 3.916,-5.451 3.914,-6.88 4.573,-4.441 6.363,-2.351 7.813,-0.683 8.923,0.559 9.693,1.378 9.85,1.724 0.273,0.048 9.857,1.682 0.355,0.06 9.962,1.288 9.372,0.41 8.442,-0.892 7.171,-2.619 5.561,-4.769 4.401,-5.243 4.65,-2.898 4.908,-1.058 5.175,0.275 5.45,1.104 5.734,1.427 6.026,1.245 6.327,0.556 6.637,-0.638 6.955,-2.337 7.281,-4.541 7.242,-6.896 0.374,-0.356 5.882,-8.15 5.264,-5.01 4.826,-2.527 4.568,-0.701 4.492,0.469 4.596,0.981 4.881,0.838 5.346,0.037 5.992,-1.421 6.819,-3.535 7.825,-6.306 6.795,-7.337 2.219,-2.396 3.656,-9.308 0.94,-2.392 0.902,-9.959 0.136,-1.496 -1.634,-9.865 -0.219,-1.323 -3.505,-9.366 -0.574,-1.534 -4.7,-8.827 -0.94,-1.764 -5.371,-8.435 -1.162,-1.825 -5.637,-8.26 -1.125,-1.649 -5.528,-8.334 -0.798,-1.202 -4.96,-8.683 -0.262,-0.459 -3.453,-8.727 -1.019,-8.29 2.082,-7.832 2.04,-6.051 1.098,-5.915 0.35,-5.821 -0.201,-5.767 -0.56,-5.756 -0.722,-5.787 -0.689,-5.859 -0.462,-5.974 -0.039,-6.13 0.578,-6.328 1.391,-6.567 2.397,-6.849 1.194,-5.724 -0.193,-6.051 -1.308,-6.314 -2.154,-6.51 -2.726,-6.641 -3.029,-6.705 -3.059,-6.705 -2.818,-6.637 -2.306,-6.505 -1.523,-6.306 -0.468,-6.041 0.857,-5.711 1.493,-5.337 1.271,-5.233 1.089,-5.158 0.949,-5.111 0.847,-5.092 0.786,-5.104 0.766,-5.142 0.785,-5.21 0.845,-5.305 0.945,-5.431 1.086,-5.584 1.266,-5.765 0.858,-5.286 -0.073,-4.766 -0.832,-4.395 -1.414,-4.175 -1.823,-4.104 -2.058,-4.184 -2.119,-4.412 -2.004,-4.791 -1.716,-5.319 -1.253,-5.997 -0.616,-6.825 0.196,-7.802 1.136,-6.767 0.892,-5.719 0.678,-4.911 0.496,-4.343 0.345,-4.015 0.225,-3.928 0.137,-4.08 0.08,-4.471 0.054,-5.105 0.06,-5.976 0.097,-7.089 0.165,-8.441 2.689,-6.297 5.791,-4.501 8.311,-3.104 9.795,-2.014 0.453,-0.093 9.916,-1.291 1.687,-0.22 9.945,-1.056 2.432,-0.258 9.928,-1.198 2.641,-0.319 9.851,-1.715 2.325,-0.405 9.633,-2.685 1.571,-0.438 9.054,-4.247 0.594,-0.279 7.511,-6.329 4.791,-8.531 -1.004,-8.295 -5.569,-6.062 -9.064,-4.223 -0.246,-0.114 -9.688,-2.476 -2.538,-0.649 -9.86,-1.668 -4.458,-0.754 -9.9,-1.416 -5.687,-0.814 -9.876,-1.571 -6.154,-0.978 -9.775,-2.11 -5.876,-1.269 -9.506,-3.104 -4.94,-1.614 -8.839,-4.676 -3.578,-1.893 -7.309,-6.825 -2.255,-2.105 -4.463,-8.949 -1.424,-2.853 1.036,-9.946 0.231,-2.219 3.811,-9.245 0.685,-1.663 5.868,-8.097 1.221,-1.685 7.172,-6.969 1.872,-1.819 7.943,-6.075 2.419,-1.849 8.38,-5.457 2.664,-1.735 8.596,-5.109 2.492,-1.482 8.639,-5.037 1.858,-1.083 8.484,-5.294 0.783,-0.488 7.4,-5.574 4.898,-5.498 1.757,-5.552 2.063,-4.376 5.693,-1.813 8.676,0.064 9.935,1.134 1.08,0.123 9.904,1.375 2.803,0.389 9.934,1.147 3.82,0.441 9.988,0.511 4.169,0.214 9.982,-0.59 3.93,-0.232 9.736,-2.283 3.286,-0.77 8.873,-4.612 2.614,-1.359 6.97,-7.17 2.335,-2.402 4.236,-9.059 2.244,-4.8 -0.476,-9.989 -0.223,-4.686 -2.692,-9.631 -0.77,-2.757 -4.782,-8.783 -0.906,-1.664 -6.401,-7.683 -0.974,-1.169 -7.464,-6.655 -1.061,-0.946 -8.066,-5.911 -1.071,-0.785 -8.322,-5.545 -0.889,-0.592 -8.28,-5.606 -0.467,-0.317 -7.746,-6.054 -6.207,-6.531 -4.13,-7.353 -1.515,-8.521 -2.554,-6.132 -6,-4.255 -8.809,-2.785 -9.879,-1.551 -1.099,-0.173 -9.963,-0.853 -2.544,-0.217 -9.981,-0.614 -3.417,-0.21 -9.973,-0.72 -3.675,-0.265 -9.932,-1.163 -3.329,-0.39 -9.793,-2.025 -2.441,-0.505 -9.378,-3.472 -1.19,-0.441 -8.262,-5.704 -5.318,-7.904 -2.787,-8.546 -3.467,-5.476 -4.073,-3.058 -4.605,-1.295 -5.063,-0.184 -5.447,0.271 -5.756,0.075 -5.992,-0.776 -6.154,-2.279 -6.241,-4.438 -6.255,-7.249 -5.005,-8.657 -1.189,-2.057 0.074,-9.999 0.011,-1.477 5.243,-8.515 0.98,-1.592 7.799,-6.259 3.402,-2.731 8.796,-4.758 6.226,-3.367 9.204,-3.91 8.479,-3.601 9.371,-3.492 9.37,-3.492 0.445,-0.166 9.408,-3.391 9.407,-3.39 0.716,-0.258 9.336,-3.583 9.381,-3.599 9.111,-4.121 7.633,-3.454 8.56,-5.169 5.053,-3.052 7.149,-6.991 2.174,-2.127 3.531,-9.356 0.344,-0.911 -0.741,-9.973 -0.043,-0.584 0.615,-8.146 1.749,-6.237 2.619,-4.833 3.225,-3.929 3.563,-3.528 3.639,-3.63 3.448,-4.234 2.993,-5.34 2.274,-6.949 1.287,-9.06 0.033,-10 0.01,-1.673 -4.874,-8.732 -0.339,-0.605 -8.895,-4.568 -0.85,-0.437 -9.939,-1.106 -3.514,-0.391 -9.974,0.724 -6.359,0.462 -9.866,1.633 -8.523,1.411 -9.79,2.037 -9.826,2.044 -9.779,2.095 -9.777,2.095 -0.464,0.1 -9.828,1.843 -9.768,1.833 -9.927,1.211 -8.42,1.028 -10,-0.015 -6.271,-0.01 -9.74,-2.266 -3.63,-0.844 -8.083,-5.886 -1.558,-1.135 -1.628,-9.866 -0.093,-0.558 5.216,-8.532 0.077,-0.126 8.315,-5.555 2.694,-1.8 9.214,-3.888 6.219,-2.625 9.495,-3.138 9.065,-2.996 9.566,-2.915 9.565,-2.915 1.262,-0.385 9.517,-3.072 9.516,-3.073 1.9,-0.613 9.332,-3.591 9.333,-3.592 1.51,-0.58 8.91,-4.539 8.912,-4.538 0.302,-0.154 7.98,-6.026 6.798,-5.134 5.99,-8.006 4.147,-5.543 2.482,-9.687 1.72,-6.715 -4.21,-9.071 -2.577,-5.552 -7.314,-6.821 -3.7,-3.45 -9.087,-4.175 -5.306,-2.438 -9.776,-2.106 -7.147,-1.541 -9.973,-0.737 -8.631,-0.639 -9.999,0.104 -9.436,0.098 -9.985,0.559 -9.433,0.527 -9.977,0.686 -8.575,0.59 -9.99,0.458 -6.847,0.314 -9.995,-0.297 -4.278,-0.128 -9.78,-2.085 -1.079,-0.23 -6.598,-4.901 -1.793,-6.499 0.91,-6.526 3.082,-6.59 4.723,-6.69 5.832,-6.826 6.41,-7 6.455,-7.209 5.971,-7.455 4.955,-7.737 3.407,-8.057 1.327,-8.412 -1.282,-8.804 -4.059,-6.847 -5.027,-5.805 -5.788,-4.928 -6.346,-4.214 -6.695,-3.663 -6.839,-3.277 -6.776,-3.053 -6.508,-2.993 -6.034,-3.097 -5.353,-3.364 -4.465,-3.795 -3.373,-4.388 -1.426,-4.629 1.005,-4.364 2.935,-4.256 4.362,-4.303 5.289,-4.506 5.712,-4.866 5.635,-5.38 5.055,-6.052 3.974,-6.878 2.392,-7.861 0.307,-9 -2.162,-9.764 -0.118,-0.53 -4.925,-8.573 -4.244,-6.671 -3.685,-5.147 -3.25,-3.999 -2.938,-3.232 -2.749,-2.839 -2.685,-2.827 -2.743,-3.19 -2.925,-3.933 -3.231,-5.052 -3.66,-6.55 -4.213,-8.425 -6.5,-4.928 -8.893,0.488 -9.142,4.051 -1.776,0.787 -8.4,5.426 -4.178,2.7 -8.015,5.98 -5.856,4.37 -7.893,6.14 -6.905,5.371 -7.978,6.029 -7.381,5.578 -8.252,5.647 -7.3,4.993 -8.725,4.885 -6.655,3.726 -9.374,3.483 -5.467,2.032 -9.954,0.971 -3.984,0.388 -9.564,-2.918 -3.101,-0.945 -7.374,-6.755 -2.126,-1.948 -7.341,-5.737 -5.632,-3.331 -4.367,-1.483 -3.551,-0.194 -3.181,0.536 -3.26,0.709 -3.785,0.322 -4.757,-0.624 -6.177,-2.128 -8.044,-4.191 -8.355,-5.495 -2.004,-1.317 -5.672,-8.236 -0.929,-1.35 -2.642,-9.644 -0.398,-1.451 -0.098,-9.999 -0.023,-2.235 1.636,-9.865 0.52,-3.136 2.722,-9.622 1.067,-3.774 3.356,-9.42 1.425,-4 3.652,-9.309 1.477,-3.763 3.645,-9.312 1.19,-3.04 3.271,-9.45 0.627,-1.812 2.319,-9.798 0.098,-7.964 -2.768,-5.758 -3.46,-3.399 -3.338,-2.863 -3.279,-2.453 -3.284,-2.166 -3.353,-2.004 -3.489,-1.967 -3.687,-2.053 -3.95,-2.265 -4.277,-2.601 -4.67,-3.06 -5.125,-3.646 -5.647,-4.355 -4.417,-4.285 -3.857,-4.062 -3.427,-3.886 -3.13,-3.755 -2.964,-3.67 -2.929,-3.634 -3.027,-3.642 -3.256,-3.697 -3.618,-3.798 -4.109,-3.947 -4.733,-4.14 -5.49,-4.382 -3.729,-4.361 -2.573,-5.365 -1.656,-6.173 -0.976,-6.783 -0.533,-7.198 -0.33,-7.415 -0.363,-7.435 -0.635,-7.26 -1.144,-6.888 -1.891,-6.318 -2.877,-5.553 -4.099,-4.591 -4.635,-3.011 -5.095,-2.187 -5.463,-1.521 -5.736,-1.013 -5.918,-0.666 -6.006,-0.475 -6,-0.444 -5.903,-0.571 -5.711,-0.856 -5.426,-1.301 -5.05,-1.904 -4.578,-2.666 -4.562,-1.344 -4.094,2.305 -3.874,5.217 -3.905,7.392 -4.185,8.83 -4.434,8.963 -0.28,0.567 -5.009,8.656 -0.484,0.838 -5.99,8.008 -0.533,0.712 -7.343,6.788 -0.457,0.422 -8.829,4.697 -0.499,0.265 -9.846,1.753 -1.26,0.225 -9.913,-1.317 -3.22,-0.428 -8.396,-5.431 -2.216,-1.433 -7.086,-7.056 -0.548,-0.545 -5.182,-8.143 -3.26,-8.494 -1.862,-8.652 -0.995,-8.617 -0.651,-8.388 -0.838,-7.968 -1.551,-7.354 -2.792,-6.547 -4.558,-5.548 -6.854,-4.356 -3.973,-5.048 0.091,-7.765 3.115,-9.502 0.178,-0.544 4.281,-9.037 1.351,-2.853 4.715,-8.819 2.395,-4.481 4.76,-8.794 2.966,-5.478 4.508,-8.926 2.971,-5.883 3.929,-9.196 2.441,-5.714 2.891,-9.573 1.51,-5.001 1.129,-9.936 0.439,-3.866 -1.665,-9.861 -0.462,-2.734 -5.209,-8.536 -1.474,-2.415 -9.189,-3.945 -1.744,-0.748 -9.988,-0.488 -1.436,-0.07 -9.723,2.338 -2.027,0.488 -9.091,4.167 -2.822,1.293 -8.513,5.247 -3.397,2.094 -8.11,5.852 -3.633,2.622 -7.901,6.129 -3.51,2.724 -7.897,6.136 -3.019,2.346 -8.124,5.831 -2.13,1.529 -8.643,5.03 -0.787,0.457 -8.439,2.863 -7.285,-0.511 -3.736,-3.847 -0.337,-6.163 2.295,-8.131 3.928,-9.197 0.236,-0.551 4.314,-9.022 0.953,-1.993 4.252,-9.05 1.353,-2.879 3.828,-9.238 1.349,-3.255 2.994,-9.542 0.993,-3.165 1.593,-9.872 0.436,-2.697 -0.573,-9.984 -0.12,-2.097 -3.485,-9.374 -0.695,-1.869 -6.426,-7.662 -2.006,-2.391 -9.33,-3.597 -2.239,-0.864 -9.916,-1.296 -1.388,-0.181 -9.961,0.878 -1.039,0.091 -9.654,2.609 -1.008,0.273 -9.24,3.824 -1.047,0.433 -8.887,4.586 -0.99,0.511 -8.678,4.969 -0.753,0.431 -8.659,5.002 -0.289,0.166 -8.431,4.4 -7.876,3.096 -7.288,1.255 -6.661,-1.121 -4.895,-2.178 -3.81,-2.557 -2.997,-2.9 -2.455,-3.205 -2.185,-3.474 -2.187,-3.706 -2.46,-3.901 -3.005,-4.058 -3.822,-4.179 -4.909,-4.262 -6.27,-4.308 -7.901,-4.319 -7.583,-0.695 -7.316,2.708 -7.12,5.463 -6.789,7.342 -0.208,0.226 -6.099,7.925 -0.847,1.101 -5.779,8.161 -1.186,1.674 -5.767,8.17 -1.291,1.827 -6.047,7.965 -1.173,1.545 -6.649,7.469 -0.806,0.906 -7.622,6.472 -0.14,0.119 -8.14,4.159 -8.589,1.08 -6.084,-3.475 -2.983,-6.782 -0.563,-9.51 1.002,-9.949 0.171,-1.709 1.661,-9.861 0.566,-3.367 1.796,-9.838 0.801,-4.383 1.542,-9.88 0.742,-4.752 0.887,-9.961 0.401,-4.505 -0.284,-9.996 -0.106,-3.726 -2.168,-9.762 -0.585,-2.635 -4.835,-8.754 -0.962,-1.742 -7.652,-6.438 -1.873,-1.575 -9.666,-2.562 -1.799,-0.476 -9.575,-1.669 -8.017,-0.559 -6.787,0.289 -5.889,0.877 -5.321,1.203 -5.084,1.269 -5.177,1.075 -5.6,0.619 -6.354,-0.098 -7.438,-1.074 -8.852,-2.312 -7.548,1.649 -4.698,7.75 -1.952,9.808 -0.586,2.944 -0.643,9.98 -0.429,6.674 -0.153,9.999 -0.145,9.457 -0.101,10 -0.101,10 -0.012,1.159 -0.377,9.993 -0.378,9.993 -0.066,1.776 -0.994,9.951 -0.993,9.95 -0.136,1.364 -2.047,9.788 -2.067,9.88 -3.718,9.283 -3.079,7.689 -6.111,7.916 -4.061,5.26 -8.645,5.027 -5.594,3.254 -9.803,-1.973 -5.388,-1.085 -7.218,-6.92 -3.014,-2.889 -3.746,-9.271 -2.452,-6.071 -1.555,-9.878 -1.538,-9.779 -0.4,-9.992 -0.4,-9.992 -0.112,-2.771 0.139,-9.999 0.14,-9.999 0.064,-4.636 0.265,-9.997 0.266,-9.996 0.14,-5.304 0.03,-10 0.03,-10 0.014,-4.74 -0.631,-9.98 -0.63,-9.981 -0.19,-3.007 -1.916,-9.814 -1.917,-9.815 -0.067,-0.346 -4.19,-9.08 -3.087,-6.687 -7.459,-6.66 -4.119,-3.679 -9.932,-1.169 -4.84,-0.57 -9.992,0.413 -2.765,0.114 -9.775,2.109 -1.243,0.268 -9.289,3.704 -0.27,0.108 -8.38,4.83 -7.478,5.434 -6.855,5.622 -6.511,5.393 -6.446,4.75 -6.659,3.692 -7.151,2.216 -7.922,0.326 -6.634,-0.937 -4.574,-2.305 -3.024,-3.442 -1.982,-4.349 -1.448,-5.025 -1.422,-5.473 -1.906,-5.688 -2.897,-5.673 -4.398,-5.428 -6.406,-4.953 -8.923,-4.248 -9.637,-2.671 -2.312,-0.64 -9.94,1.093 -1.511,0.166 -9.334,3.59 -0.752,0.289 -8.303,5.574 -0.615,0.412 -7.235,6.903 -0.71,0.677 -6.376,7.703 -0.793,0.957 -5.811,8.139 -0.778,1.089 -5.558,8.314 -0.647,0.969 -5.635,8.261 -0.384,0.563 -6.028,7.852 -6.234,6.369 -6.635,4.37 -7.234,1.86 -4.277,2.521 -1.609,6.027 0.404,8.933 1.549,9.879 0.214,1.363 1.872,9.823 0.596,3.13 1.762,9.844 0.756,4.222 1.301,9.915 0.613,4.666 0.45,9.99 0.204,4.508 -0.908,9.959 -0.351,3.858 -2.92,9.564 -0.908,2.974 -5.515,8.342 -1.535,2.319 -8.003,5.996 -2.924,2.191 -9.964,0.852 -2.768,0.236 -9.76,-2.179 -2.315,-0.517 -8.929,-4.503 -2.491,-1.256 -7.992,-6.011 -2.779,-2.091 -7.213,-6.927 -2.911,-2.796 -6.66,-7.46 -2.823,-3.163 -6.335,-7.738 -2.509,-3.064 -6.248,-7.808 -1.962,-2.453 -6.443,-7.647 -1.137,-1.35 -6.953,-7.014 -6.332,-4.308 -5.712,-0.882 -5.127,1.493 -4.631,2.244 -4.259,2.864 -4.013,3.351 -3.89,3.707 -3.893,3.929 -4.02,4.022 -4.273,3.98 -4.65,3.808 -5.151,3.504 -5.779,3.067 -6.529,2.498 -5.86,0.694 -5.983,-0.664 -6.075,-1.749 -6.138,-2.56 -6.171,-3.099 -6.174,-3.363 -6.149,-3.354 -6.094,-3.071 -6.008,-2.516 -5.894,-1.686 -5.749,-0.583 -5.576,0.794 h -5.302 l -4.034,-3.052 -3.144,-5.511 -2.631,-7.377 -2.498,-8.652 -2.743,-9.336 -3.365,-9.428 -4.367,-8.928 -5.746,-7.837 -7.503,-6.154 -9.277,-3.734 -0.363,-0.145 -9.965,-0.831 -2.188,-0.183 -8.472,5.314 -1.13,0.709 -2.532,9.674 -0.318,1.213 1.693,9.856 0.878,5.107 3.426,9.394 3.231,8.856 4.13,9.107 4.13,9.107 1.151,2.537 4.343,9.008 4.343,9.008 2.145,4.448 4.231,9.061 4.23,9.061 2.459,5.268 3.803,9.248 3.803,9.249 2.068,5.029 2.963,9.551 2.962,9.551 1.171,3.774 1.469,9.891 1.469,9.892 0.246,1.655 -1.066,9.943 -0.994,9.269 -4.705,8.824 -3.932,7.374 -9.116,4.111 -6.996,3.154 -9.857,1.685 -5.679,0.971 -9.97,-0.769 -4.927,-0.38 -9.598,-2.805 -4.597,-1.344 -9.042,-4.271 -4.39,-2.074 -8.523,-5.231 -4.082,-2.506 -8.153,-5.791 -3.564,-2.532 -7.989,-6.014 -2.778,-2.092 -8.091,-5.876 -1.662,-1.208 -8.552,-5.181 -0.125,-0.076 -7.54,-2.627 -6.339,0.808 -4.006,2.666 -2.039,3.181 -0.52,3.674 0.551,4.143 1.172,4.59 1.346,5.013 1.071,5.415 0.348,5.793 -0.824,6.149 -2.443,6.482 -4.512,6.791 -7.027,7.078 -7.934,4.806 -6.016,3.556 -4.478,2.59 -3.319,1.913 -2.539,1.524 -2.139,1.421 -2.118,1.606 -2.476,2.078 -3.214,2.837 -4.331,3.884 -5.827,5.216 -7.478,6.64 -0.224,0.199 -8.489,3.723 -9.236,1.091 -9.776,-1.053 -9.66,-2.586 -0.451,-0.121 -9.354,-3.535 -0.884,-0.334 -9.129,-4.081 -1.031,-0.46 -9.021,-4.316 -0.854,-0.408 -9.049,-4.258 -0.335,-0.158 -8.688,-3.617 -7.784,-2.328 -6.674,-0.55 -5.359,1.72 -3.52,3.129 -1.967,3.623 -0.762,4.086 0.096,4.515 0.605,4.913 0.766,5.278 0.581,5.612 0.047,5.913 -0.835,6.182 -2.065,6.418 -3.641,6.622 -5.567,6.795 -6.389,4.641 -5.802,3.485 -5.323,2.573 -4.951,1.905 -4.688,1.48 -4.533,1.297 -4.485,1.358 -4.546,1.662 -4.713,2.21 -4.99,2.999 -5.374,4.033 -5.866,5.31 -5.7,3.15 -6.692,1.352 -7.48,-0.091 -8.065,-1.175 -8.449,-1.906 -8.63,-2.278 -8.609,-2.295 -8.384,-1.955 -7.957,-1.26 -7.329,-0.208 -6.497,1.201 -5.462,2.965 -3.165,4.089 -1.337,4.903 0.107,5.608 1.165,6.209 1.838,6.704 2.125,7.091 2.029,7.372 1.546,7.548 0.68,7.616 -0.573,7.579 -2.211,7.436 -4.232,7.185 -5.613,4.755 -6.152,3.627 -6.567,2.709 -6.856,1.999 -7.02,1.499 -7.058,1.207 -6.972,1.124 -6.759,1.25 -6.423,1.586 -5.96,2.129 -5.371,2.884 -4.659,3.844 -3.8,0.891 -4.914,-3.626 -6.001,-7.162 -5.877,-8.091 -1.183,-1.628 -5.823,-8.13 -2.268,-3.168 -6.074,-7.944 -3.021,-3.953 -6.583,-7.528 -3.488,-3.99 -7.351,-6.778 -3.667,-3.38 -8.364,-5.48 -3.574,-2.342 -9.435,-3.312 -3.395,-1.192 -9.999,-0.152 -3.695,-0.056 -9.442,3.292 -5.089,1.775 -5.952,8.035 -2.784,3.759 -2.679,9.635 -1.162,4.176 0.138,9.999 0.073,5.324 2.047,9.788 1.368,6.544 3.245,9.459 2.53,7.377 3.972,9.177 3.316,7.659 4.379,8.991 3.576,7.342 4.526,8.917 3.251,6.408 4.392,8.984 2.361,4.829 3.825,9.239 1.058,2.558 2.168,9.276 -1.395,6.252 -3.91,3.947 -4.587,2.928 -5.143,2.127 -5.579,1.543 -5.895,1.176 -6.09,1.025 -6.165,1.092 -6.118,1.375 -5.952,1.877 -5.666,2.594 -5.258,3.53 -4.73,4.681 -3.747,4.636 -3.665,3.765 -3.627,3.09 -3.629,2.609 -3.676,2.324 -3.766,2.235 -3.897,2.338 -4.071,2.64 -4.289,3.134 -4.549,3.824 -4.851,4.709 -5.197,5.79 -1.233,5.957 3.955,5.88 8.134,5.969 8.76,4.824 2.543,1.4 8.968,4.426 4.497,2.219 8.963,4.435 5.654,2.798 8.795,4.76 5.966,3.228 8.419,5.397 5.476,3.51 7.689,6.393 4.331,3.601 6.306,7.762 2.832,3.485 3.826,9.239 1.419,3.428 0.241,9.997 0.103,4.255 -4.693,8.83 -1.724,3.245 -6.162,7.876 -0.88,1.124 -7.499,6.46 -7.787,4.453 -7.906,2.978 -7.857,2.039 -7.638,1.632 -7.252,1.759 -6.696,2.419 -5.972,3.614 -5.078,5.342 -4.017,7.603 -4.465,5.48 -6.622,3.812 -8.335,2.459 -9.609,1.42 -9.978,0.664 -0.464,0.03 -9.996,0.262 -0.837,0.021 -9.998,0.173 -0.785,0.014 -9.992,0.391 -0.301,0.011 -9.36,0.934 -7.988,1.779 -6.175,2.937 -3.919,4.411 -3.467,4.41 -4.564,1.984 -5.523,0.119 -6.345,-1.189 -7.029,-1.937 -7.577,-2.126 -7.985,-1.756 -8.258,-0.827 -8.393,0.661 -8.389,2.709 -8.25,5.315 -6.849,7.286 -1.122,1.194 -3.077,9.515 -0.231,0.718 -0.354,9.994 -0.017,0.483 1.879,9.822 0.149,0.78 3.442,9.388 0.447,1.218 4.448,8.956 0.762,1.535 5.045,8.634 0.949,1.623 5.33,8.461 0.908,1.441 5.334,8.459 0.611,0.968 5.009,8.655 0.104,0.179 3.742,8.119 1.833,7.285 -0.615,6.332 0.175,4.087 3.45,3.317 6.095,2.848 8.113,2.673 9.503,2.799 9.541,2.994 0.723,0.227 9.351,3.545 1.047,0.397 8.941,4.478 0.962,0.481 8.136,5.815 0.644,0.461 6.653,7.466 0.377,0.423 4.287,9.035 0.364,0.767 1.356,9.907 0.287,2.103 -3.957,9.184 -0.452,1.049 -7.026,7.116 -0.741,0.751 -8.71,4.913 -1.74,0.981 -9.449,3.271 -3.008,1.042 -9.752,2.208 -4.036,0.915 -9.873,1.589 -4.572,0.736 -9.912,1.319 -4.513,0.6 -9.905,1.375 -3.826,0.53 -9.834,1.817 -2.527,0.467 -9.589,2.837 -0.726,0.215 -7.595,4.215 -4.198,5.767 -1.46,6.39 -0.957,6.288 -0.542,6.184 -0.217,6.084 0.02,5.984 0.168,5.886 0.228,5.789 0.198,5.694 0.082,5.598 -0.125,5.506 -0.42,5.414 -0.803,5.324 -2.834,3.987 -5.733,0.685 -8.163,-1.811 -9.451,-3.268 -0.67,-0.232 -9.356,-3.53 -2.253,-0.85 -9.431,-3.326 -3.196,-1.128 -9.623,-2.717 -3.55,-1.003 -9.867,-1.622 -3.382,-0.556 -9.999,0.132 -2.856,0.038 -9.636,2.673 -2.354,0.653 -8.253,5.646 -2.401,1.644 -5.914,8.062 -2.933,3.998 -2.352,9.719 -1.082,4.471 -1.869,9.823 -0.214,1.127 -1.003,8.31 -0.19,6.272 0.353,4.834 0.627,3.996 0.633,3.76 0.369,4.122 -0.164,5.087 -0.965,6.65 -2.036,8.816 -2.799,9.601 -0.577,1.981 -0.814,9.967 -0.097,1.194 0.915,9.117" /></g><g
       id="circle_layer"><path
         id="circle"
         transform="translate(-58.32299,-17.963)"
         d="m 1257.527,4305.303 c -53.1451,-190.3217 15.6634,-377.4349 76.506,-555.554 40.9084,-197.0563 -25.7573,-396.5502 5.747,-595.227 -20.6903,-149.9698 52.5484,-355.5813 232.798,-345.517 194.3684,37.9887 389.9996,-3.1084 583.134,-30.228 238.8416,-67.491 412.2063,-288.7565 495.716,-514.029 30.382,-128.1866 71.0754,-284.6545 5.552,-405.216 -94.2346,-51.1093 -108.4965,-160.4542 -58.887,-249.2 89.6251,-186.6537 333.9572,-291.74 524.017,-189.963 243.1513,108.4636 465.5597,-125.2845 711.427,-66.634 167.2744,43.9625 356.654,32.0793 486.014,-95.629 124.0754,-120.1648 328.6344,-83.3659 420.315,57.123 164.79,191.7331 438.6432,252.1832 681.297,251.232 232.1518,-56.5441 486.1279,39.4197 618.564,239.27 141.5939,158.8371 57.0915,421.7451 243.625,553.938 178.1592,107.892 296.9117,288.0343 347.341,488.359 76.4493,198.465 13.6852,447.3034 186.551,605.741 250.232,228.0775 321.1613,633.5364 149.144,928.274 -88.6779,162.7939 3.0548,335.8956 3.087,503.936 -16.342,230.03 -304.4693,259.4473 -378.587,457.825 -42.874,96.2631 -111.0499,204.7199 -106.169,307.574 -75.6726,21.8906 -191.2487,-15.5525 -281.848,-13.004 -255.8543,-22.1916 -542.0949,9.4958 -722.699,213.209 -182.366,189.8327 -363.7543,436.2155 -343.99,712.268 3.9476,80.1887 68.1313,57.9914 119.362,43.222 60.2023,126.2951 -130.1356,156.9138 -218.045,177.627 -216.6737,50.9526 -381.8664,283.1617 -624.62,220.36 -161.7924,-59.5144 -334.2494,-136.4987 -508.115,-70.538 -317.7426,101.3732 -665.8437,-54.615 -872.705,-299.989 -197.5324,-164.0443 -449.7524,-291.36 -713.432,-256.113 -196.1369,5.3684 -300.9525,-186.3125 -344.139,-351.347 -99.6946,-210.6351 -131.8199,-460.6674 -313.946,-624.227 -203.7149,-241.9956 -276.8641,-562.5337 -349.427,-863.136 -15.5388,-78.6707 -36.9917,-155.9829 -53.588,-234.411 M 966.23999,1491.686 c -166.5316,198.4543 -254.7241,491.8693 -155.636,737.438 73.5332,41.4611 142.5346,101.8742 120.822,196.742 -20.8955,254.4209 -292.9268,416.4318 -279.652,683.209 14.7673,189.9202 41.3811,387.7443 -44.321,567.025 -129.0772,348.7268 -32.0618,726.1143 29.477,1078.661 91.8131,329.122 153.2367,693.2444 409.17801,941.96 135.3065,172.0698 173.5562,394.9111 269.996,587.979 80.8006,263.1571 224.1779,549.0525 509.07,632.25 212.1903,58.1979 440.2291,75.253 639.114,172.687 152.8296,106.664 259.0639,271.5017 434.796,348.541 251.8272,156.9071 563.0469,270.9029 858.305,174.657 268.8121,-69.201 501.8846,161.1294 770.787,103.152 231.6519,-25.3846 463.8999,-113.3492 646.825,-256.891 96.4668,-158.7802 304.7153,-165.9423 459.522,-97.212 303.0564,114.3502 646.173,37.7145 923.631,-111.352 274.7728,-113.7431 563.3539,-311.0961 610.009,-627.631 6.3436,-228.3724 -144.2792,-439.1114 -87.753,-671.546 16.2138,-214.1376 210.9677,-331.2433 363.44,-449.247 187.9339,-168.3076 136.0391,-434.1437 147.417,-657.2 21.7489,-230.8078 176.736,-428.1773 167.463,-665.632 26.9465,-302.0762 -5.9638,-652.7017 -246.776,-866.416 -154.4847,-159.5897 -107.9352,-396.6204 -183.122,-590.16 -50.8815,-234.5603 -141.1928,-488.5899 -365.039,-609.848 -199.8097,-134.9281 -120.4486,-411.4473 -262.838,-582.949 -185.271,-321.6093 -505.5149,-625.4197 -899.55,-616.32099 -159.3859,-8.41108 -324.0637,-1.07978 -478.802,-39.912 -229.7287,-84.98584 -345.8266,-378.06619 -616.823,-370.122 -244.9263,-0.0933 -453.3522,201.33302 -705.901,146.912 -188.9423,-49.34155 -370.0764,26.33997 -547.966,78.202 -261.5201,62.76492 -531.6624,-162.49448 -779.821,-5.087 -177.4079,109.61634 -256.4834,382.13339 -498.629,375.90299 -131.853,-39.9914 -267.1047,-41.1768 -401.983,-13.31 -288.6724,21.453 -584.0692,123.4413 -766.482,360.051 -12.92031,15.156 -25.84051,30.3121 -38.76201,45.467" /></g></g></svg>
